<svg xmlns="http://www.w3.org/2000/svg" width="97.173" height="109.324" viewBox="0 0 97.173 109.324">
  <g id="antenna" transform="translate(-26.008 0)">
    <g id="Group_14" data-name="Group 14" transform="translate(26.008 -0.001)">
      <g id="Group_13" data-name="Group 13" transform="translate(0)">
        <path id="Path_25" data-name="Path 25" d="M392.2.831V.821a1.869,1.869,0,0,0-3.04,2.174,44.75,44.75,0,0,1,0,52.029,1.869,1.869,0,0,0,.425,2.608l.011.008a1.869,1.869,0,0,0,2.6-.434A48.488,48.488,0,0,0,392.2.831Z" transform="translate(-304.058 -0.04)" fill="#fff"/>
        <path id="Path_26" data-name="Path 26" d="M37.649.347h0a1.869,1.869,0,0,0-2.6.434,48.487,48.487,0,0,0,0,56.375,1.869,1.869,0,0,0,3.04-2.173,44.75,44.75,0,0,1,0-52.029A1.869,1.869,0,0,0,37.649.347Z" transform="translate(-26.008 0.001)" fill="#fff"/>
        <path id="Path_27" data-name="Path 27" d="M92.477,30.817a1.869,1.869,0,0,0-.333-2.622h0a1.869,1.869,0,0,0-2.616.325,35.354,35.354,0,0,0,0,43.515,1.869,1.869,0,0,0,2.949-2.3A31.615,31.615,0,0,1,92.477,30.817Z" transform="translate(-68.952 -21.308)" fill="#fff"/>
        <path id="Path_28" data-name="Path 28" d="M340.36,28.176h0a1.869,1.869,0,0,0-.325,2.616,31.615,31.615,0,0,1,0,38.922,1.869,1.869,0,1,0,2.949,2.3,35.354,35.354,0,0,0,0-43.515A1.869,1.869,0,0,0,340.36,28.176Z" transform="translate(-266.379 -21.29)" fill="#fff"/>
        <path id="Path_29" data-name="Path 29" d="M290.55,58.922a18.618,18.618,0,0,1,0,25.568,1.869,1.869,0,0,0,.079,2.642h0a1.869,1.869,0,0,0,2.641-.081h0a22.355,22.355,0,0,0,0-30.688A1.869,1.869,0,1,0,290.53,58.9Z" transform="translate(-228.36 -42.736)" fill="#fff"/>
        <path id="Path_30" data-name="Path 30" d="M145.467,87.638a1.869,1.869,0,0,0,1.362-3.149,18.618,18.618,0,0,1,0-25.568,1.869,1.869,0,0,0-2.7-2.582l-.02.021a22.355,22.355,0,0,0,0,30.688A1.868,1.868,0,0,0,145.467,87.638Z" transform="translate(-111.847 -42.736)" fill="#fff"/>
        <path id="Path_31" data-name="Path 31" d="M178.534,171.183l-18.2-70.953a9.344,9.344,0,1,0-12.083,0l-18.194,70.953a1.869,1.869,0,0,0,1.344,2.275h0a1.9,1.9,0,0,0,.463.058,1.869,1.869,0,0,0,1.809-1.4l.624-2.429a1.874,1.874,0,0,0,.3-.116l34.932-18.386,5.367,20.93a1.868,1.868,0,0,0,1.813,1.405,1.894,1.894,0,0,0,.465-.058,1.868,1.868,0,0,0,1.348-2.273Zm-18.016-55.2-10.162-8.893,1.286-5.012a8.383,8.383,0,0,0,5.311,0ZM154.3,87.556a5.606,5.606,0,1,1-5.606,5.606A5.606,5.606,0,0,1,154.3,87.556Zm-4.98,23.585,11.255,9.852L143.94,132.074ZM135.544,164.85l6.709-26.162,22.8,10.637Zm9.473-28.995,17.59-11.728,5.806,22.645Z" transform="translate(-105.71 -64.193)" fill="#fff"/>
      </g>
    </g>
  </g>
</svg>
